<svg width="38" height="34" viewBox="0 0 38 34" fill="none" xmlns="http://www.w3.org/2000/svg">
<path d="M2.53333 30.1428H19.6333V32.0428C19.6333 33.0917 20.4844 33.9428 21.5333 33.9428H24.0667C24.6208 33.9428 25.1453 33.6954 25.5016 33.2798C25.5115 33.2798 25.5214 33.2797 25.5313 33.2699C25.9964 33.7053 26.6 33.9428 27.2333 33.9428H34.8333C35.8823 33.9428 36.7333 33.0917 36.7333 32.0428C36.7333 31.7162 36.6443 31.3896 36.476 31.1126C37.337 30.5782 37.624 29.46 37.1094 28.5792C37.5844 28.2824 37.901 27.7876 37.9802 27.2334C38.0594 26.6792 37.8813 26.1152 37.5052 25.7094C38.0099 25.1553 38.1385 24.3537 37.8318 23.6709C37.525 22.9881 36.8422 22.5428 36.0901 22.5428H34.1901V2.90943C34.1901 1.51412 33.0521 0.376099 31.6568 0.376099H2.53333C1.13802 0.376099 0 1.51412 0 2.90943V27.6094C0 29.0048 1.13802 30.1428 2.53333 30.1428ZM24.0667 32.6761H21.5333C21.187 32.6761 20.9 32.3891 20.9 32.0428V26.3428C20.9 25.9964 21.187 25.7094 21.5333 25.7094H24.0667C24.413 25.7094 24.7 25.9964 24.7 26.3428V32.0428C24.7 32.3891 24.413 32.6761 24.0667 32.6761ZM36.7333 24.4428C36.7333 24.7891 36.4464 25.0761 36.1 25.0761H34.2C33.8536 25.0761 33.5667 25.3631 33.5667 25.7094C33.5667 26.0558 33.8536 26.3428 34.2 26.3428H36.1C36.4464 26.3428 36.7333 26.6298 36.7333 26.9761C36.7333 27.3225 36.4464 27.6094 36.1 27.6094H34.2C33.8536 27.6094 33.5667 27.8964 33.5667 28.2428C33.5667 28.5891 33.8536 28.8761 34.2 28.8761H35.4667C35.813 28.8761 36.1 29.1631 36.1 29.5094C36.1 29.8558 35.813 30.1428 35.4667 30.1428H34.2C33.8536 30.1428 33.5667 30.4298 33.5667 30.7761C33.5667 31.1225 33.8536 31.4094 34.2 31.4094H34.8333C35.1797 31.4094 35.4667 31.6964 35.4667 32.0428C35.4667 32.3891 35.1797 32.6761 34.8333 32.6761H27.2333C26.5307 32.6761 25.9667 32.112 25.9667 31.4094V26.0756C26.7583 25.5808 27.3521 24.8188 27.649 23.9381C28.213 22.2459 28.5 20.4745 28.5 18.6933C28.5 18.6042 28.5594 18.535 28.6385 18.5053C28.8563 18.4657 29.4203 18.3667 29.9547 19.4157C30.2516 20.0193 30.4 20.6824 30.3901 21.3652V23.1761C30.3901 23.5225 30.6771 23.8094 31.0234 23.8094H36.0901C36.4464 23.8094 36.7333 24.0964 36.7333 24.4428ZM31.6667 22.5428V21.3652C31.6766 20.4943 31.4786 19.6235 31.0927 18.8417C30.4693 17.6245 29.5193 17.0605 28.4208 17.2584C27.7281 17.387 27.2333 17.9907 27.2333 18.6933C27.2333 20.336 26.9661 21.9787 26.4516 23.5422C26.2536 24.1261 25.8677 24.6209 25.3531 24.9672C25.0068 24.6407 24.5417 24.4626 24.0667 24.4527H21.5333C20.4844 24.4527 19.6333 25.3037 19.6333 26.3527V28.886H2.53333C1.83073 28.886 1.26667 28.3219 1.26667 27.6193V6.70943H32.9333V22.5428H31.6667ZM2.53333 1.64277H31.6667C32.3693 1.64277 32.9333 2.20683 32.9333 2.90943V5.44277H1.26667V2.90943C1.26667 2.20683 1.83073 1.64277 2.53333 1.64277Z" fill="white"/>
<path fill-rule="evenodd" clip-rule="evenodd" d="M3.79897 3.54231C3.79897 3.88868 3.51197 4.17568 3.1656 4.17568C2.81922 4.17568 2.53223 3.88868 2.53223 3.54231C2.53223 3.19593 2.81922 2.90894 3.1656 2.90894C3.51197 2.90894 3.79897 3.19593 3.79897 3.54231Z" fill="white"/>
<path fill-rule="evenodd" clip-rule="evenodd" d="M6.33315 3.54231C6.33315 3.88868 6.04615 4.17568 5.69978 4.17568C5.3534 4.17568 5.06641 3.88868 5.06641 3.54231C5.06641 3.19593 5.3534 2.90894 5.69978 2.90894C6.04615 2.90894 6.33315 3.19593 6.33315 3.54231Z" fill="white"/>
<path fill-rule="evenodd" clip-rule="evenodd" d="M8.86635 3.54231C8.86635 3.88868 8.57935 4.17568 8.23298 4.17568C7.8866 4.17568 7.59961 3.88868 7.59961 3.54231C7.59961 3.19593 7.8866 2.90894 8.23298 2.90894C8.57935 2.90894 8.86635 3.19593 8.86635 3.54231Z" fill="white"/>
<path d="M5.06613 20.0099H15.2001C16.2491 20.0099 17.1002 19.1588 17.1002 18.1098V10.5094C17.1002 9.46034 16.2491 8.60925 15.2001 8.60925H5.06613C4.01711 8.60925 3.16602 9.46034 3.16602 10.5094V18.1098C3.16602 19.1588 4.01711 20.0099 5.06613 20.0099ZM6.61986 18.7432L9.5492 14.1315L10.9545 15.893L9.15334 18.7432H6.61986ZM15.2001 18.7432H10.6576L13.9927 13.4981L15.8334 15.8039V18.1197C15.8334 18.4562 15.5464 18.7432 15.2001 18.7432ZM4.43276 10.5094C4.43276 10.163 4.71975 9.87599 5.06613 9.87599H15.2001C15.5464 9.87599 15.8334 10.163 15.8334 10.5094V13.7752L14.4281 12.0136C14.2995 11.8553 14.1015 11.7662 13.9036 11.7761C13.6958 11.786 13.5177 11.8949 13.3989 12.073L11.6868 14.7648L9.99454 12.647C9.86588 12.4886 9.66796 12.3996 9.47003 12.4095C9.2622 12.4194 9.08407 12.5282 8.96531 12.7064L5.1255 18.7432H5.06613C4.71975 18.7432 4.43276 18.4562 4.43276 18.1098V10.5094V10.5094Z" fill="white"/>
<path fill-rule="evenodd" clip-rule="evenodd" d="M6.96596 11.7757C6.96596 12.1221 6.67896 12.4091 6.33259 12.4091C5.98621 12.4091 5.69922 12.1221 5.69922 11.7757C5.69922 11.4293 5.98621 11.1423 6.33259 11.1423C6.67896 11.1423 6.96596 11.4293 6.96596 11.7757Z" fill="white"/>
<path fill-rule="evenodd" clip-rule="evenodd" d="M30.4007 9.24194H19.6334C19.287 9.24194 19 9.52894 19 9.87531C19 10.2217 19.287 10.5087 19.6334 10.5087H30.4007C30.747 10.5087 31.034 10.2217 31.034 9.87531C31.034 9.52894 30.747 9.24194 30.4007 9.24194Z" fill="white"/>
<path fill-rule="evenodd" clip-rule="evenodd" d="M30.4007 11.7761H19.6334C19.287 11.7761 19 12.0631 19 12.4095C19 12.7559 19.287 13.0429 19.6334 13.0429H30.4007C30.747 13.0429 31.034 12.7559 31.034 12.4095C31.034 12.0631 30.747 11.7761 30.4007 11.7761Z" fill="white"/>
<path fill-rule="evenodd" clip-rule="evenodd" d="M30.4007 14.3085H19.6334C19.287 14.3085 19 14.5955 19 14.9418C19 15.2882 19.287 15.5752 19.6334 15.5752H30.4007C30.747 15.5752 31.034 15.2882 31.034 14.9418C31.034 14.5955 30.747 14.3085 30.4007 14.3085Z" fill="white"/>
<path fill-rule="evenodd" clip-rule="evenodd" d="M25.3337 16.8427H19.6334C19.287 16.8427 19 17.1296 19 17.476C19 17.8224 19.287 18.1094 19.6334 18.1094H25.3337C25.6801 18.1094 25.9671 17.8224 25.9671 17.476C25.9671 17.1296 25.6801 16.8427 25.3337 16.8427Z" fill="white"/>
<path fill-rule="evenodd" clip-rule="evenodd" d="M18.3669 22.5428H3.79939C3.45301 22.5428 3.16602 22.8298 3.16602 23.1762C3.16602 23.5226 3.45301 23.8096 3.79939 23.8096H18.3669C18.7133 23.8096 19.0003 23.5226 19.0003 23.1762C19.0003 22.8298 18.7133 22.5428 18.3669 22.5428Z" fill="white"/>
<path fill-rule="evenodd" clip-rule="evenodd" d="M16.4668 25.0751H3.79939C3.45301 25.0751 3.16602 25.3621 3.16602 25.7084C3.16602 26.0548 3.45301 26.3418 3.79939 26.3418H16.4668C16.8132 26.3418 17.1002 26.0548 17.1002 25.7084C17.1002 25.3621 16.8132 25.0751 16.4668 25.0751Z" fill="white"/>
</svg>
