<svg width="35" height="38" viewBox="0 0 35 38" fill="none" xmlns="http://www.w3.org/2000/svg">
<path d="M8.56406 36.9972C7.87526 36.6911 7.56913 36.2319 7.64566 35.4665C7.64566 35.0839 7.64566 34.6247 7.64566 34.242C7.49259 34.242 7.33953 34.242 7.18646 34.242C5.34966 34.242 3.5894 34.242 1.7526 34.242C0.8342 34.242 0.375 33.7828 0.375 32.8644C0.375 32.4817 0.375 32.0991 0.375 31.7164C0.375 31.3337 0.6046 31.1041 0.910733 31.1041C1.21687 31.1041 1.44647 31.3337 1.44647 31.7164C1.44647 32.0991 1.44647 32.4817 1.44647 32.8644C1.44647 33.0175 1.523 33.094 1.67607 33.094C3.66593 33.094 5.57926 33.094 7.64566 33.094C7.64566 31.8695 7.64566 30.7215 7.64566 29.5735C6.19153 28.6551 5.73233 28.0428 5.50273 26.3591C4.58433 26.3591 3.66593 26.2825 2.82406 26.3591C2.05873 26.4356 1.523 27.2775 1.44647 28.1193C1.44647 28.502 1.44647 28.8081 1.44647 29.1908C1.44647 29.5735 1.21687 29.8031 0.910733 29.8031C0.6046 29.8031 0.375 29.5735 0.375 29.1908C0.375 28.8081 0.375 28.3489 0.375 27.9663C0.451533 27.0479 0.910733 26.2825 1.67607 25.7468C1.7526 25.6703 1.82913 25.6703 1.90567 25.5937C1.59953 24.5988 1.21687 23.6804 0.987266 22.762C-0.237266 17.8639 0.528067 13.3484 3.3598 9.13909C3.51286 8.90949 3.5894 8.75642 3.43633 8.45029C3.05366 7.68496 3.20673 6.76656 3.819 6.15429C4.43126 5.54203 5.27313 5.31243 6.115 5.69509C6.26806 5.84816 6.42113 5.77163 6.5742 5.61856C7.49259 5.00629 8.33446 4.39403 9.25286 3.78176C9.63553 3.55216 9.94166 3.62869 10.0947 3.93483C10.2478 4.24096 10.0947 4.47056 9.78859 4.70016C8.94673 5.31243 8.10486 5.84816 7.26299 6.46042C7.10993 6.53696 7.10993 6.69002 7.18646 6.84309C7.49259 7.60842 7.33953 8.37376 6.80379 8.90949C6.26806 9.52176 5.57926 9.75136 4.7374 9.52176C4.5078 9.44522 4.43126 9.52176 4.2782 9.67482C2.74753 11.8943 1.82913 14.3434 1.59953 17.0985C1.2934 19.8537 1.7526 22.4559 2.82406 24.9815C2.9006 25.2111 3.05366 25.2876 3.3598 25.2876C4.43126 25.2876 5.50273 25.2876 6.49766 25.2876C6.57419 24.9815 6.49766 24.8284 6.3446 24.6753C5.4262 23.91 4.81393 22.9916 4.66086 21.8436C4.66086 21.614 4.58433 21.5375 4.35473 21.4609C2.97713 21.0783 2.51793 19.3945 3.51286 18.3231C3.5894 18.2465 3.66593 18.0169 3.66593 17.8639C3.66593 16.7159 3.66593 15.6444 3.66593 14.4964C3.66593 12.8127 4.7374 11.5882 6.26806 11.282C6.49766 11.2055 6.80379 11.2055 7.03339 11.2055C8.18139 11.2055 9.32939 11.2055 10.4774 11.2055C11.2427 11.2055 12.0081 11.4351 12.6203 11.9708C12.6969 12.0474 12.8499 12.0474 12.9265 12.0474C13.6153 11.7412 14.3041 11.6647 15.0694 11.6647C15.4521 11.6647 15.7582 11.6647 16.1409 11.6647C16.447 11.6647 16.6766 11.8943 16.7531 12.2004C16.7531 12.5066 16.5235 12.7362 16.1409 12.7362C15.6051 12.7362 15.0694 12.7362 14.5337 12.7362C13.1561 12.7362 12.0081 13.8076 11.9315 15.1852C11.855 16.3332 11.9315 17.4812 11.9315 18.6292C11.9315 18.7057 11.9315 18.7057 11.9315 18.7823C12.2377 18.8588 12.2377 18.7057 12.3142 18.4761C12.4673 17.6343 12.7734 16.8689 13.2326 16.1801C13.5387 15.7975 13.6918 15.7209 14.151 15.874C15.6051 16.3332 16.9827 16.7159 18.5134 16.8689C18.8961 16.8689 19.3552 16.8689 19.7379 16.7924C19.9675 16.7159 20.2737 16.5628 20.4267 16.4097C20.7329 16.1036 21.1155 16.1036 21.3451 16.4863C21.7278 17.0985 22.0339 17.7873 22.1104 18.4761C22.1104 18.6292 22.187 18.8588 22.4166 18.7823C22.4166 18.7057 22.4166 18.6292 22.4166 18.5527C22.4166 17.7873 22.4166 17.022 22.4166 16.2567C22.4166 15.874 22.34 15.6444 21.8808 15.6444C21.5747 15.5679 21.4216 15.3383 21.4216 15.0322C21.4216 14.4199 21.1921 13.9607 20.8094 13.5015C20.3502 12.9658 19.7379 12.7362 19.1257 12.7362C18.8961 12.7362 18.6665 12.7362 18.5134 12.7362C18.2073 12.7362 17.9777 12.5066 17.9777 12.2004C17.9777 11.8943 18.2073 11.6647 18.5134 11.6647C19.3553 11.5882 20.1971 11.7412 20.8859 12.1239C21.6512 11.3586 22.5696 11.129 23.5646 11.2055C24.7126 11.2055 25.784 11.2055 26.932 11.2055C28.3862 11.2055 29.5342 12.1239 29.9168 13.5015C29.9168 13.578 29.9934 13.7311 30.1464 13.8076C30.6056 14.1138 30.8352 14.573 30.8352 15.1087C30.8352 15.9505 30.8352 16.8689 30.8352 17.7108C30.8352 17.8639 30.9118 18.0935 31.0648 18.17C32.0598 19.2415 31.6006 20.8487 30.223 21.3079C29.9934 21.3844 29.9934 21.4609 29.9168 21.614C29.6872 22.762 29.1515 23.7569 28.2331 24.5223C28.08 24.5988 28.08 24.8284 27.927 24.9815L28.0035 25.058C28.5392 25.058 28.9984 25.058 29.5342 25.058C30.0699 25.058 30.6822 25.058 31.2179 25.058C31.524 25.058 31.6006 24.9815 31.7536 24.7519C32.8251 22.2263 33.2078 19.6241 32.9782 16.9455C32.7486 14.2668 31.8302 11.8178 30.376 9.59829C30.223 9.36869 30.0699 9.29216 29.8403 9.36869C29.075 9.59829 28.3862 9.36869 27.8504 8.75642C27.3147 8.14416 27.1616 7.45536 27.4678 6.69002C27.3912 6.69002 27.3147 6.53696 27.1616 6.38389C24.9422 4.62363 22.4166 3.47563 19.5849 3.01643C19.2787 2.93989 19.1257 3.01643 18.9726 3.32256C18.2073 4.70016 16.2174 4.62363 15.4521 3.32256C15.299 3.09296 15.1459 3.01643 14.9163 3.09296C13.9979 3.32256 13.0795 3.55216 12.1611 3.78176C12.0081 3.85829 11.7019 3.85829 11.5489 3.78176C11.3958 3.70523 11.2427 3.47563 11.3193 3.32256C11.3958 3.16949 11.5489 2.86336 11.7019 2.86336C12.6203 2.55723 13.4622 2.40416 14.3806 2.17456C14.4571 2.17456 14.4571 2.17456 14.5337 2.17456C14.9929 2.17456 15.2225 2.0215 15.3755 1.5623C15.7582 0.643897 16.447 0.26123 17.3654 0.26123C18.2073 0.337764 18.8961 0.72043 19.2022 1.5623C19.3553 1.86843 19.5083 1.94496 19.8144 2.0215C22.8758 2.4807 25.5544 3.62869 27.927 5.61856C28.1566 5.77163 28.3096 5.84816 28.6158 5.69509C29.3811 5.38896 30.2995 5.61856 30.8352 6.23083C31.371 6.84309 31.524 7.76149 31.1414 8.52682C31.0648 8.67989 30.9883 8.83296 31.1414 9.06256C34.5854 14.1903 35.0446 19.6241 32.7486 25.3641C32.7486 25.4407 32.672 25.5172 32.672 25.5937C32.8251 25.6703 32.9016 25.7468 33.0547 25.8999C33.82 26.5121 34.2027 27.2775 34.2027 28.2724C34.2027 29.8031 34.2027 31.4103 34.2027 32.9409C34.2027 33.8593 33.7435 34.3185 32.8251 34.3185C30.9883 34.3185 29.228 34.3185 27.3912 34.3185C27.2382 34.3185 27.0851 34.3185 26.932 34.3185C26.932 34.7777 26.932 35.1604 26.932 35.5431C27.0086 36.3084 26.7024 36.7676 26.0136 37.0737C20.1206 36.9972 14.3806 36.9972 8.56406 36.9972ZM21.1155 28.2724C20.8859 30.7215 19.0491 32.0225 17.2889 32.0225C16.3705 32.0225 15.6051 31.7929 14.9163 31.1807C13.9214 30.4153 13.4622 29.4204 13.3857 28.1959C12.5438 28.1959 11.7785 28.1959 10.9366 28.1959C9.55899 28.1959 8.71713 29.0377 8.71713 30.4153C8.71713 32.0991 8.71713 33.7828 8.71713 35.4665C8.71713 35.7727 8.79366 35.9257 9.17633 35.9257C12.3142 35.9257 15.4521 35.9257 18.5899 35.9257C20.8859 35.9257 23.1819 35.9257 25.4779 35.9257C25.631 35.9257 25.8606 36.0023 25.8606 35.6961C25.8606 33.8593 25.8606 32.0991 25.8606 30.2623C25.8606 29.2673 25.0187 28.3489 24.1003 28.3489C23.0288 28.1959 22.1104 28.2724 21.1155 28.2724ZM20.8859 17.7873C18.4369 18.6292 16.2939 17.7108 14.0745 17.1751C13.9979 17.2516 13.9214 17.3281 13.9214 17.4812C13.5387 18.0169 13.3857 18.6292 13.3857 19.2415C13.3857 20.5425 13.3091 21.8436 13.4622 23.0681C13.6918 25.058 15.5286 26.5121 17.5185 26.3591C19.5083 26.206 21.1155 24.5988 21.1155 22.6089C21.1155 21.4609 21.1155 20.3129 21.1155 19.1649C21.1155 18.7057 20.9624 18.2465 20.8859 17.7873ZM5.96193 16.6393C5.8854 17.0985 5.73233 17.4812 5.6558 17.8639C5.57926 19.0119 5.57926 20.2364 5.6558 21.3844C5.80886 23.4508 7.64566 24.8284 9.63553 24.5223C10.6305 24.3692 11.4723 23.7569 12.0081 22.9151C11.9315 22.9151 11.855 22.8385 11.855 22.8385C10.5539 22.3028 10.0947 21.0783 10.7835 19.8537C10.7835 19.7772 10.8601 19.7772 10.8601 19.7007C10.8601 18.9353 10.8601 18.2465 10.8601 17.4812C9.17633 17.4812 7.64566 17.0985 5.96193 16.6393ZM32.9782 33.1705C32.9782 31.4103 32.9782 29.7265 32.9782 28.0428C32.9782 27.2775 32.3659 26.5121 31.6006 26.4356C30.6822 26.3591 29.8403 26.4356 28.9219 26.4356C28.6923 28.1193 28.2331 28.8081 26.779 29.65C26.779 30.8745 26.779 32.0225 26.779 33.1705C28.9219 33.1705 30.9118 33.1705 32.9782 33.1705ZM22.4931 22.8385C22.4931 22.9151 22.5696 22.9916 22.5696 22.9916C23.335 24.1396 24.8656 24.7519 26.1667 24.4457C27.6208 24.0631 28.6923 22.9151 28.7688 21.4609C28.8454 20.3895 28.8454 19.2415 28.7688 18.17C28.7688 17.7873 28.6158 17.3281 28.6158 16.9455C26.8555 17.7873 25.2483 17.2516 23.5646 16.9455C23.5646 17.7108 23.5646 18.4761 23.5646 19.2415C23.5646 19.4711 23.6411 19.6241 23.7176 19.7772C24.2534 20.8487 23.8707 22.1497 22.7227 22.6089C22.6462 22.762 22.5696 22.8385 22.4931 22.8385ZM21.8043 12.8892C22.0339 13.425 22.2635 13.9607 22.4931 14.4964C22.5696 14.726 22.6462 14.8026 22.7992 14.9556C23.0288 15.1852 23.2584 15.4148 23.488 15.721C23.5646 15.7975 23.7176 15.9506 23.7942 16.0271C24.3299 16.1802 24.7891 16.3332 25.3248 16.3332C26.0902 16.4097 26.779 16.4097 27.5443 16.3332C27.7739 16.3332 27.927 16.0271 28.08 15.874C28.2331 15.7209 28.3862 15.4914 28.5392 15.4914C28.6923 15.4914 28.9219 15.6444 29.075 15.7975C29.3046 16.1036 29.4576 16.4097 29.6107 16.7924C29.6107 16.1802 29.6107 15.6444 29.6107 15.1852C29.6107 15.1087 29.4576 14.9556 29.3811 14.8791C28.9984 14.8026 28.8454 14.573 28.8454 14.1903C28.7688 13.1954 28.0035 12.43 27.0086 12.43C25.7075 12.43 24.4064 12.43 23.1054 12.43C22.5696 12.3535 22.1104 12.5831 21.8043 12.8892ZM4.81393 16.6393C4.967 16.4097 5.12006 16.1801 5.1966 15.9505C5.50273 15.4914 5.6558 15.4148 6.19153 15.5679C6.95686 15.7975 7.72219 15.9505 8.48753 16.1801C9.25286 16.3332 10.0947 16.4863 10.9366 16.3332C10.8601 15.0322 11.0131 13.8076 11.9315 12.8892C11.5489 12.5831 11.1662 12.43 10.707 12.43C9.40593 12.43 8.18139 12.43 6.88033 12.43C5.73233 12.43 4.89046 13.1954 4.81393 14.3434C4.7374 15.0322 4.81393 15.874 4.81393 16.6393ZM18.8195 27.2009C17.595 27.5071 17.2123 27.5836 15.6051 27.2009C15.8347 28.1193 15.299 28.3489 14.5337 28.1959C14.6102 29.7265 15.8347 30.9511 17.3654 30.9511C18.8961 30.8745 20.1206 29.65 20.0441 28.2724C19.7379 28.1959 19.3553 28.1959 19.2022 28.0428C18.8961 27.8897 18.8961 27.5071 18.8195 27.2009ZM8.02833 28.5785C8.41099 28.1959 8.79366 27.8897 9.17633 27.5836C9.78859 27.2009 10.4009 27.1244 11.1662 27.1244C11.3193 27.1244 11.4723 27.0479 11.4723 26.9713C11.5489 26.8183 11.5489 26.5887 11.6254 26.2825C10.9366 26.3591 10.4774 26.206 10.5539 25.3641C9.55899 25.6703 8.64059 25.6703 7.72219 25.4407C7.64566 25.7468 7.56913 26.0529 7.41606 26.206C7.26299 26.3591 6.88033 26.3591 6.65073 26.4356C6.57419 27.2775 7.18646 28.1959 8.02833 28.5785ZM23.9472 25.4407C23.7942 26.206 23.7942 26.206 22.9523 26.3591C22.8758 27.0479 22.9523 27.1244 23.6411 27.1244C24.483 27.1244 25.2483 27.354 25.8606 27.9663C26.0902 28.1193 26.2432 28.3489 26.4728 28.5785C27.3912 28.1959 28.08 27.1244 27.927 26.3591C27.0851 26.2825 27.0086 26.3591 26.932 25.4407C25.8606 25.7468 24.9422 25.6703 23.9472 25.4407ZM5.27313 8.60336C5.80886 8.60336 6.26806 8.14416 6.26806 7.60842C6.26806 7.07269 5.80886 6.61349 5.34966 6.61349C4.81393 6.61349 4.35473 6.99616 4.35473 7.53189C4.2782 8.14416 4.7374 8.60336 5.27313 8.60336ZM17.2123 3.24603C17.7481 3.24603 18.2073 2.78683 18.2073 2.2511C18.2073 1.71536 17.7481 1.3327 17.2123 1.25616C16.6766 1.25616 16.2174 1.71536 16.2174 2.2511C16.2939 2.86336 16.6766 3.24603 17.2123 3.24603ZM29.228 8.60336C29.7638 8.60336 30.223 8.14416 30.223 7.60842C30.223 7.07269 29.8403 6.69002 29.3046 6.61349C28.7688 6.61349 28.3096 6.99616 28.3096 7.53189C28.2331 8.14416 28.6923 8.60336 29.228 8.60336ZM14.4571 27.1244C14.5337 26.6652 14.3806 26.3591 14.0745 26.3591C13.6153 26.2825 13.1561 26.3591 12.6203 26.3591C12.6203 26.6652 12.5438 26.8948 12.5438 27.1244C13.2326 27.1244 13.8449 27.1244 14.4571 27.1244ZM21.8043 26.3591C21.4216 26.3591 21.039 26.3591 20.6563 26.3591C20.1206 26.3591 19.891 26.5887 20.0441 27.1244C20.6563 27.1244 21.2686 27.1244 21.9574 27.1244C21.8808 26.8183 21.8808 26.5887 21.8043 26.3591ZM22.8758 25.2111C22.8758 24.5223 22.187 24.4457 21.9574 23.9865C21.7278 24.4457 21.5747 24.7519 21.3451 25.2111C21.8808 25.2111 22.34 25.2111 22.8758 25.2111ZM13.0795 25.2111C12.8499 24.8284 12.6969 24.4457 12.4673 24.0631C12.2377 24.2927 12.0846 24.4457 11.855 24.5988C11.6254 24.7519 11.3958 24.9049 11.5489 25.2111C12.1611 25.2111 12.6203 25.2111 13.0795 25.2111ZM12.2377 21.7671C12.2377 21.1548 12.2377 20.6191 12.2377 20.0068C11.7785 20.0833 11.5489 20.3895 11.5489 20.7721C11.5489 21.2313 11.7785 21.614 12.2377 21.7671ZM22.187 20.0068C22.187 20.6191 22.187 21.1548 22.187 21.7671C22.6462 21.6905 22.8758 21.3079 22.8758 20.9252C22.9523 20.466 22.6462 20.1599 22.187 20.0068ZM4.58433 18.9353C4.20166 19.0884 4.0486 19.3945 4.0486 19.7007C4.0486 20.0068 4.20166 20.2364 4.58433 20.3895C4.58433 19.9303 4.58433 19.4711 4.58433 18.9353ZM29.9168 20.3895C30.2995 20.2364 30.4526 20.0068 30.4526 19.6241C30.4526 19.318 30.2995 19.0884 29.9168 18.9353C29.9168 19.4711 29.9168 19.9303 29.9168 20.3895Z" fill="white"/>
</svg>
