<svg style="display:none">


    <svg id="logo" width="187" height="44" viewBox="0 0 187 44" fill="none" xmlns="http://www.w3.org/2000/svg">
  <path d="M66.2032 30.7345C65.6089 30.7345 64.9237 30.6437 64.1478 30.4621L61.6961 29.7935L62.3648 27.7876C63.7516 28.2829 64.9072 28.5305 65.8318 28.5305C66.3271 28.5305 66.7398 28.4149 67.07 28.1838C67.4002 27.9527 67.5653 27.639 67.5653 27.2428C67.5653 26.8465 67.458 26.5494 67.2433 26.3513C67.0287 26.1531 66.6325 25.9798 66.0546 25.8312L64.7174 25.4845C62.8683 25.0057 61.9438 23.9161 61.9438 22.2156C61.9438 21.192 62.3317 20.35 63.1077 19.6897C63.9002 19.0293 64.932 18.6991 66.2032 18.6991C66.715 18.6991 67.3176 18.7899 68.011 18.9715L70.4627 19.6401L69.7941 21.646C68.4568 21.1507 67.4415 20.9031 66.7481 20.9031C66.2858 20.9031 65.8978 21.0269 65.5841 21.2746C65.2704 21.5057 65.1136 21.8111 65.1136 22.1908C65.1136 22.5871 65.2209 22.8842 65.4355 23.0824C65.6502 23.2805 66.0464 23.4538 66.6242 23.6024L67.9367 23.9491C68.9273 24.2133 69.6372 24.6177 70.0665 25.1626C70.4957 25.6909 70.7103 26.376 70.7103 27.218C70.7103 28.2251 70.3306 29.0671 69.5712 29.744C68.8117 30.4043 67.6891 30.7345 66.2032 30.7345ZM76.7946 30.7345C75.5564 30.7345 74.6814 30.4291 74.1696 29.8183C73.6743 29.2074 73.4267 28.2746 73.4267 27.0199V21.1012H71.5941V18.922H73.4267V16.0245L76.5717 15.4054V18.922H79.2958V21.1012H76.5717V27.0694C76.5717 28.0435 76.968 28.5305 77.7604 28.5305C78.2392 28.5305 78.751 28.3819 79.2958 28.0848L79.7911 29.9421C78.8831 30.4704 77.8843 30.7345 76.7946 30.7345ZM84.5056 30.7345C83.383 30.7345 82.4914 30.3878 81.8311 29.6944C81.1707 29.001 80.8405 28.1756 80.8405 27.218C80.8405 26.5081 81.0716 25.9385 81.5339 25.5093C82.0127 25.0635 82.7556 24.7168 83.7627 24.4692L87.7497 23.4786V22.4633C87.7497 21.9845 87.6012 21.6048 87.304 21.3241C87.0233 21.0434 86.6271 20.9031 86.1153 20.9031C85.5375 20.9031 84.2332 21.3406 82.2025 22.2156L81.3358 20.2097L84.1589 19.1696C85.0174 18.8559 85.6448 18.6991 86.041 18.6991C87.5434 18.6991 88.7238 19.0953 89.5823 19.8878C90.4573 20.6637 90.8948 21.6873 90.8948 22.9585V27.218C90.8948 27.5317 90.9443 28.0022 91.0434 28.6296C91.159 29.2404 91.3075 29.7605 91.4892 30.1897L88.7898 30.7345C88.4597 30.3713 88.113 29.8678 87.7497 29.2239C86.6436 30.231 85.5622 30.7345 84.5056 30.7345ZM85.62 28.5305C86.2639 28.5305 86.9738 28.159 87.7497 27.4161V24.9149L85.2733 25.6331C84.4809 25.8642 84.0846 26.3017 84.0846 26.9456C84.0846 27.4409 84.225 27.8289 84.5056 28.1095C84.7863 28.3902 85.1577 28.5305 85.62 28.5305ZM97.4361 30.7345C96.1979 30.7345 95.3228 30.4291 94.8111 29.8183C94.3158 29.2074 94.0681 28.2746 94.0681 27.0199V21.1012H92.2356V18.922H94.0681V16.0245L97.2132 15.4054V18.922H99.9373V21.1012H97.2132V27.0694C97.2132 28.0435 97.6094 28.5305 98.4019 28.5305C98.8807 28.5305 99.3925 28.3819 99.9373 28.0848L100.433 29.9421C99.5245 30.4704 98.5257 30.7345 97.4361 30.7345ZM132.412 30.5117H129.267V23.751C129.267 22.7604 129.119 22.0423 128.822 21.5965C128.541 21.1342 128.087 20.9031 127.46 20.9031C126.832 20.9031 126.155 21.2746 125.429 22.0175V30.5117H122.284V23.751C122.284 22.7604 122.143 22.0423 121.863 21.5965C121.582 21.1342 121.12 20.9031 120.476 20.9031C119.865 20.9031 119.188 21.2746 118.445 22.0175V30.5117H115.3V22.2156C115.3 21.9019 115.242 21.4397 115.127 20.8288C115.028 20.2014 114.887 19.6731 114.706 19.2439L117.38 18.6991C117.727 19.0458 118.082 19.5493 118.445 20.2097C119.485 19.2026 120.567 18.6991 121.689 18.6991C123.357 18.6991 124.488 19.2852 125.082 20.4573C125.445 19.9786 125.965 19.5658 126.642 19.2191C127.319 18.8724 127.996 18.6991 128.673 18.6991C129.928 18.6991 130.86 19.0623 131.471 19.7887C132.099 20.5151 132.412 21.646 132.412 23.1814V30.5117ZM138.122 30.7345C137 30.7345 136.108 30.3878 135.448 29.6944C134.787 29.001 134.457 28.1756 134.457 27.218C134.457 26.5081 134.688 25.9385 135.151 25.5093C135.629 25.0635 136.372 24.7168 137.379 24.4692L141.366 23.4786V22.4633C141.366 21.9845 141.218 21.6048 140.921 21.3241C140.64 21.0434 140.244 20.9031 139.732 20.9031C139.154 20.9031 137.85 21.3406 135.819 22.2156L134.952 20.2097L137.776 19.1696C138.634 18.8559 139.261 18.6991 139.658 18.6991C141.16 18.6991 142.34 19.0953 143.199 19.8878C144.074 20.6637 144.511 21.6873 144.511 22.9585V27.218C144.511 27.5317 144.561 28.0022 144.66 28.6296C144.776 29.2404 144.924 29.7605 145.106 30.1897L142.407 30.7345C142.076 30.3713 141.73 29.8678 141.366 29.2239C140.26 30.231 139.179 30.7345 138.122 30.7345ZM139.237 28.5305C139.881 28.5305 140.59 28.159 141.366 27.4161V24.9149L138.89 25.6331C138.098 25.8642 137.701 26.3017 137.701 26.9456C137.701 27.4409 137.842 27.8289 138.122 28.1095C138.403 28.3902 138.774 28.5305 139.237 28.5305ZM150.477 30.5117H147.332V22.2156C147.332 21.9019 147.275 21.4397 147.159 20.8288C147.06 20.2014 146.92 19.6731 146.738 19.2439L149.413 18.6991C149.924 19.2109 150.279 19.9043 150.477 20.7793C150.808 20.1189 151.245 19.6071 151.79 19.2439C152.351 18.8807 152.954 18.6991 153.598 18.6991C153.961 18.6991 154.291 18.7569 154.588 18.8724L154.043 21.5717H153.226C152.45 21.5717 151.839 21.7616 151.394 22.1413C150.964 22.5045 150.659 23.1154 150.477 23.9739V30.5117ZM166.831 30.5117H162.968L159.129 24.5187V30.5117H155.984V13.9691L159.129 13.35V23.6519L163.042 18.922H166.583L161.928 24.0977L166.831 30.5117ZM172.468 30.7345C170.603 30.7345 169.191 30.1815 168.234 29.0753C167.293 27.9527 166.822 26.4833 166.822 24.6673C166.822 22.8512 167.309 21.4066 168.283 20.3335C169.257 19.2439 170.611 18.6991 172.344 18.6991C175.696 18.6991 177.372 20.4408 177.372 23.9243C177.372 24.2876 177.33 24.593 177.248 24.8406H170.066C170.066 26.0788 170.289 27.0034 170.735 27.6142C171.197 28.2251 171.833 28.5305 172.642 28.5305C173.55 28.5305 174.738 28.2003 176.208 27.5399L177.074 29.5458L174.449 30.5117C174.004 30.6602 173.343 30.7345 172.468 30.7345ZM172.171 20.9031C171.511 20.9031 170.991 21.1342 170.611 21.5965C170.248 22.0588 170.066 22.6366 170.066 23.33H174.103C174.103 21.7121 173.459 20.9031 172.171 20.9031ZM183.539 30.7345C182.3 30.7345 181.425 30.4291 180.913 29.8183C180.418 29.2074 180.171 28.2746 180.171 27.0199V21.1012H178.338V18.922H180.171V16.0245L183.316 15.4054V18.922H186.04V21.1012H183.316V27.0694C183.316 28.0435 183.712 28.5305 184.504 28.5305C184.983 28.5305 185.495 28.3819 186.04 28.0848L186.535 29.9421C185.627 30.4704 184.628 30.7345 183.539 30.7345Z" fill="#54618E"/>
  <path d="M111.71 30.5117H108.713V26.698H101.952L101.284 24.7663L108.342 14.6625H111.71V24.3701H113.295V26.698H111.71V30.5117ZM108.713 24.3701V17.9314L104.33 24.3701H108.713Z" fill="#D653D2"/>
  <mask id="mask0_1458_22843" style="mask-type:alpha" maskUnits="userSpaceOnUse" x="0" y="0" width="47" height="44">
  <ellipse cx="23.5" cy="22" rx="23.5" ry="22" fill="url(#paint0_linear_1458_22843)"/>
  </mask>
  <g mask="url(#mask0_1458_22843)">
  <ellipse cx="23.5" cy="22" rx="23.5" ry="22" fill="url(#paint1_linear_1458_22843)"/>
  <path d="M30.973 28.1049V3.65188C30.973 3.27788 30.9848 2.87088 31.0083 2.43088C31.0553 1.99088 31.1023 1.53988 31.1493 1.07788L9.57625 28.1049H30.973ZM50.9423 28.1049V29.8209C50.9423 30.0629 50.86 30.2609 50.6955 30.4149C50.5545 30.5469 50.3195 30.6129 49.9905 30.6129H33.934V44.0109H30.973V30.6129H7.39075C7.03825 30.6129 6.768 30.5469 6.58 30.4149C6.392 30.2609 6.26275 30.0629 6.19225 29.8209L5.875 28.2699L30.9377 -2.75012H33.934V28.1049H50.9423Z" fill="white"/>
  </g>
  <defs>
  <linearGradient id="paint0_linear_1458_22843" x1="54.05" y1="-13.2" x2="17.1277" y2="46.2454" gradientUnits="userSpaceOnUse">
  <stop stop-color="#FF00AA"/>
  <stop offset="1" stop-color="#8912DE"/>
  </linearGradient>
  <linearGradient id="paint1_linear_1458_22843" x1="54.05" y1="-13.2" x2="17.1277" y2="46.2454" gradientUnits="userSpaceOnUse">
  <stop stop-color="#FF00AA"/>
  <stop offset="1" stop-color="#8912DE"/>
  </linearGradient>
  </defs>
  </svg>




  <svg id="arrow" width="11" height="9" viewBox="0 0 11 9" fill="none" xmlns="http://www.w3.org/2000/svg">
  <path d="M6.46871 8.43439C6.04061 9.11226 5.05207 9.11225 4.62397 8.43439L0.934642 2.59259C0.475889 1.86619 0.997874 0.919172 1.85701 0.919172L9.23567 0.919173C10.0948 0.919173 10.6168 1.86619 10.158 2.59259L6.46871 8.43439Z" fill="#331A2F" fill-opacity="0.9"/>
  </svg>


  <symbol id="icon1" width="120" height="120" viewBox="0 0 120 120" fill="none" xmlns="http://www.w3.org/2000/svg">
  <g filter="url(#filter0_d_1457_20711)">
  <rect x="25" y="21" width="70" height="70" rx="15" fill="#CF51CE"/>
  </g>
  <defs>
  <filter id="filter0_d_1457_20711" x="0" y="0" width="120" height="120" filterUnits="userSpaceOnUse" color-interpolation-filters="sRGB">
  <feFlood flood-opacity="0" result="BackgroundImageFix"/>
  <feColorMatrix in="SourceAlpha" type="matrix" values="0 0 0 0 0 0 0 0 0 0 0 0 0 0 0 0 0 0 127 0" result="hardAlpha"/>
  <feOffset dy="4"/>
  <feGaussianBlur stdDeviation="12.5"/>
  <feComposite in2="hardAlpha" operator="out"/>
  <feColorMatrix type="matrix" values="0 0 0 0 0.917647 0 0 0 0 0.364706 0 0 0 0 0.733333 0 0 0 0.25 0"/>
  <feBlend mode="normal" in2="BackgroundImageFix" result="effect1_dropShadow_1457_20711"/>
  <feBlend mode="normal" in="SourceGraphic" in2="effect1_dropShadow_1457_20711" result="shape"/>
  </filter>
  </defs>
  </symbol>


  <symbol id="telefon" width="17" height="17" viewBox="0 0 17 17" fill="none" xmlns="http://www.w3.org/2000/svg">
  <path d="M11.1004 11.5126L12.4466 10.1701C12.6279 9.99153 12.8573 9.86929 13.1069 9.81822C13.3566 9.76715 13.6157 9.78946 13.8528 9.88242L15.4935 10.5357C15.7331 10.6327 15.9386 10.7983 16.0841 11.0116C16.2295 11.225 16.3084 11.4764 16.3108 11.7344V14.7311C16.3094 14.9066 16.2724 15.08 16.202 15.2408C16.1317 15.4016 16.0294 15.5466 15.9014 15.667C15.7734 15.7874 15.6223 15.8807 15.4572 15.9413C15.292 16.0019 15.1163 16.0286 14.9406 16.0197C3.44416 15.3065 1.12444 5.59713 0.685738 1.88121C0.665373 1.69873 0.68398 1.51402 0.740334 1.33923C0.796689 1.16444 0.889513 1.00353 1.0127 0.867081C1.13589 0.730637 1.28665 0.621752 1.45507 0.547589C1.62348 0.473426 1.80573 0.435665 1.98983 0.436792H4.89248C5.1515 0.437557 5.40437 0.515586 5.61856 0.660844C5.83275 0.806101 5.99847 1.01194 6.09441 1.2519L6.74946 2.8881C6.84576 3.12368 6.87033 3.38234 6.8201 3.63177C6.76986 3.8812 6.64705 4.11034 6.467 4.29056L5.12085 5.63309C5.12085 5.63309 5.89609 10.8653 11.1004 11.5126Z" fill="#331A2F"/>
  </symbol>




  <symbol id="open" width="20" height="21" viewBox="0 0 20 21" fill="none" xmlns="http://www.w3.org/2000/svg">
  <path d="M1.57108 14.1738C1.06255 14.3667 0.802403 14.9382 1.0444 15.4253C1.90764 17.1628 3.26156 18.6186 4.94814 19.6059C6.91915 20.7597 9.2257 21.2041 11.4843 20.8651C13.7428 20.5261 15.8173 19.4242 17.3628 17.7426C18.9082 16.0611 19.8315 13.9012 19.9791 11.6221C20.1267 9.34298 19.4897 7.08203 18.174 5.21519C16.8584 3.34834 14.9434 1.9881 12.7474 1.36064C10.5514 0.733173 8.20678 0.876304 6.10343 1.76623C4.3036 2.52774 2.77321 3.7968 1.69308 5.40848C1.39028 5.86029 1.57455 6.46053 2.05395 6.71745V6.71745C2.53335 6.97436 3.12554 6.7896 3.43917 6.34523C4.29907 5.12687 5.4856 4.16631 6.87091 3.58018C8.55998 2.86554 10.4428 2.7506 12.2062 3.25448C13.9697 3.75835 15.5075 4.85068 16.5641 6.34982C17.6206 7.84897 18.1321 9.66459 18.0136 11.4948C17.8951 13.325 17.1536 15.0595 15.9126 16.4098C14.6715 17.7602 13.0056 18.645 11.1919 18.9172C9.37821 19.1895 7.52596 18.8326 5.94318 17.9061C4.64503 17.1462 3.5923 16.0406 2.89672 14.7215C2.64303 14.2404 2.07961 13.9808 1.57108 14.1738V14.1738Z" fill="white"/>
  <path d="M1.25 10.1932C0.817777 10.1932 0.467391 10.5436 0.467391 10.9758C0.467391 11.4081 0.817777 11.7584 1.25 11.7584L1.25 10.1932ZM14.3034 11.5292C14.609 11.2236 14.609 10.7281 14.3034 10.4224L9.3229 5.44195C9.01727 5.13632 8.52175 5.13632 8.21612 5.44195C7.91049 5.74758 7.91049 6.2431 8.21612 6.54873L12.6432 10.9758L8.21612 15.4029C7.91049 15.7086 7.91049 16.2041 8.21612 16.5097C8.52175 16.8153 9.01727 16.8153 9.3229 16.5097L14.3034 11.5292ZM1.25 11.7584L13.75 11.7584V10.1932L1.25 10.1932L1.25 11.7584Z" fill="white"/>
  </symbol>


<svg width="48" height="49" viewBox="0 0 48 49" fill="none" xmlns="http://www.w3.org/2000/svg">
<path d="M0 44.075C0 37.4 0 30.8 0 24.125C0.3 23.15 1.05 22.625 1.875 22.175C2.175 22.025 2.475 21.875 2.775 21.8C3.15 21.725 3.225 21.5 3.225 21.2C3.225 16.475 3.225 11.825 3.225 7.1C3.225 3.725 5.625 1.25 8.85 1.25C19.95 1.25 31.125 1.25 42.225 1.25C43.8 1.25 44.775 2.225 44.775 3.875C44.775 6.05 44.775 8.225 44.775 10.4C44.775 10.55 44.775 10.775 44.775 10.925C47.025 11.675 48 12.95 48 15.275C48 23 48 30.8 48 38.525C48 38.975 48 39.425 47.85 39.875C47.4 41.675 45.825 42.875 43.8 42.875C37.125 42.875 30.525 42.875 23.85 42.875C23.625 42.875 23.475 42.875 23.25 42.875C23.25 42.95 23.25 42.95 23.25 42.95C23.25 43.025 23.25 43.1 23.25 43.175C23.325 44.3 22.8 45.125 21.825 45.65C21 46.1 20.1 46.475 19.275 46.7C16.875 47.375 14.325 47.6 11.85 47.6C8.925 47.6 6 47.375 3.15 46.4C1.8 46.025 0.525 45.5 0 44.075ZM46.425 22.85C46.425 22.625 46.425 22.475 46.425 22.325C46.425 19.925 46.425 17.525 46.425 15.125C46.425 13.4 45.45 12.425 43.725 12.425C32.175 12.425 20.55 12.425 9 12.425C7.5 12.425 6.15 11.975 5.025 11C4.95 10.925 4.875 10.925 4.8 10.85C4.8 14.3 4.8 17.675 4.8 21.05C4.95 21.05 5.1 21.05 5.25 20.975C9.225 20.15 13.2 20.15 17.25 20.825C18.825 21.05 20.4 21.5 21.825 22.325C22.725 23 23.25 23.75 23.25 24.95C23.175 30.2 23.25 35.375 23.25 40.625C23.25 40.85 23.25 41 23.25 41.225C23.4 41.225 23.55 41.225 23.7 41.225C30.45 41.225 37.125 41.225 43.875 41.225C45.45 41.225 46.5 40.25 46.5 38.6C46.5 36.2 46.5 33.725 46.5 31.325C46.5 31.175 46.5 31.025 46.5 30.875C45.225 30.875 43.95 30.875 42.75 30.875C42.15 30.875 41.55 30.8 40.95 30.575C39.225 29.9 38.25 27.95 38.625 26.15C39 24.275 40.575 22.925 42.45 22.925C43.65 22.85 45 22.85 46.425 22.85ZM43.2 7.625C42.975 7.625 42.75 7.625 42.525 7.625C30.9 7.625 19.2 7.625 7.575 7.625C6.75 7.625 6.375 7.325 6.375 6.8C6.375 6.275 6.75 5.975 7.575 5.975C19.2 5.975 30.9 5.975 42.525 5.975C42.75 5.975 42.9 5.975 43.2 5.975C43.2 5.225 43.2 4.55 43.2 3.95C43.2 3.05 42.975 2.825 42.075 2.825C31.05 2.825 20.1 2.825 9.075 2.825C8.7 2.825 8.325 2.825 8.025 2.9C6 3.35 4.65 5.225 4.8 7.1C5.025 9.2 6.675 10.775 8.775 10.775C20.1 10.775 31.425 10.775 42.825 10.775C42.975 10.775 43.05 10.775 43.2 10.7C43.2 9.8 43.2 8.75 43.2 7.625ZM11.625 22.025C9.375 22.025 7.125 22.175 4.95 22.775C3.975 23.075 3 23.45 2.1 23.9C1.425 24.275 1.425 24.65 2.1 25.025C2.625 25.325 3.15 25.55 3.675 25.775C5.4 26.375 7.125 26.6 8.925 26.75C12.075 26.975 15.225 26.9 18.375 26.15C19.275 25.925 20.175 25.55 21.075 25.1C21.825 24.725 21.825 24.275 21.075 23.825C20.625 23.525 20.1 23.3 19.575 23.15C16.95 22.25 14.325 22.1 11.625 22.025ZM1.575 26.675C1.575 27.35 1.65 28.025 1.575 28.7C1.5 29.3 1.8 29.75 2.325 29.975C3.45 30.35 4.5 30.875 5.7 31.1C8.85 31.775 12 31.775 15.225 31.475C17.025 31.325 18.75 30.95 20.475 30.275C21.3 29.9 21.825 29.45 21.675 28.4C21.6 27.875 21.675 27.275 21.675 26.75C15.15 29.075 7.875 29.075 1.575 26.675ZM1.575 36.275C1.575 37.025 1.65 37.7 1.575 38.375C1.575 38.975 1.8 39.35 2.25 39.5C3.075 39.875 3.9 40.25 4.8 40.475C9 41.525 13.275 41.45 17.55 40.7C18.75 40.475 19.95 40.175 21 39.5C21.225 39.35 21.6 39.125 21.6 38.825C21.675 38 21.6 37.1 21.6 36.2C18.375 37.7 15 38 11.625 38C8.175 38.075 4.8 37.775 1.575 36.275ZM1.575 41.075C1.575 41.825 1.575 42.5 1.575 43.25C1.575 43.775 1.725 44.15 2.175 44.375C3 44.75 3.75 45.125 4.575 45.35C8.85 46.4 13.2 46.4 17.55 45.575C18.675 45.35 19.8 44.825 20.925 44.45C21.15 44.375 21.525 44.075 21.525 43.85C21.6 43.025 21.525 42.125 21.525 41.225C15.225 43.475 7.875 43.475 1.575 41.075ZM21.6 31.475C18.375 32.975 15 33.275 11.625 33.275C8.25 33.275 4.8 32.975 1.65 31.475C1.65 32.3 1.65 33.05 1.65 33.8C1.65 34.175 1.8 34.475 2.1 34.625C2.7 34.925 3.3 35.225 3.9 35.45C5.85 36.125 7.95 36.35 9.975 36.425C12.825 36.575 15.675 36.425 18.45 35.675C19.35 35.45 20.25 35 21.075 34.625C21.3 34.55 21.6 34.175 21.6 33.95C21.6 33.2 21.6 32.375 21.6 31.475ZM46.35 29.225C46.35 27.575 46.35 26 46.35 24.425C44.925 24.425 43.575 24.425 42.225 24.425C41.025 24.5 40.05 25.55 40.05 26.75C40.05 27.95 40.95 29.075 42.15 29.15C43.5 29.3 44.925 29.225 46.35 29.225Z" fill="#CF51CE"/>
<path d="M38.0253 15.6505C36.0753 15.6505 34.1253 15.6505 32.2503 15.6505C31.9503 15.6505 31.6503 15.5005 31.4253 15.3505C31.2753 15.2005 31.2003 14.7505 31.3503 14.6005C31.5003 14.3755 31.8003 14.1505 32.1003 14.1505C32.7003 14.0755 33.3003 14.1505 33.9003 14.1505C37.2003 14.1505 40.4253 14.1505 43.7253 14.1505C43.8753 14.1505 43.9503 14.1505 44.1003 14.1505C44.5503 14.2255 44.9253 14.5255 44.9253 14.9755C44.9253 15.4255 44.5503 15.7255 44.1003 15.7255C42.6753 15.7255 41.3253 15.7255 39.9003 15.7255C39.2253 15.6505 38.6253 15.6505 38.0253 15.6505Z" fill="#CF51CE"/>
<path d="M27.9744 15.6512C27.6744 15.6512 27.3744 15.6512 27.1494 15.6512C26.6994 15.6512 26.3994 15.3512 26.3994 14.9012C26.3994 14.4512 26.6994 14.0762 27.1494 14.0762C27.7494 14.0762 28.2744 14.0762 28.8744 14.0762C29.3244 14.0762 29.6244 14.4512 29.6244 14.9012C29.6244 15.3512 29.2494 15.6512 28.7994 15.6512C28.4994 15.6512 28.2744 15.6512 27.9744 15.6512Z" fill="#CF51CE"/>
<path d="M42.3738 27.65C41.9238 27.65 41.5488 27.275 41.5488 26.825C41.5488 26.375 41.9238 26 42.3738 26C42.8238 26 43.1238 26.375 43.1238 26.75C43.1988 27.275 42.8238 27.65 42.3738 27.65Z" fill="#CF51CE"/>
</svg>







</svg>